<svg xmlns="http://www.w3.org/2000/svg" viewBox="0 0 1379 725" font-family="ui-sans-serif,system-ui,sans-serif"><rect width="100%" height="100%" fill="#0a0b0f"/><g fill="none" stroke="#4da8ff" stroke-opacity=".45" stroke-width="2.5"><path d="M532.6 520.4C635.5 520.4 635.5 153.0 738.3 153.0"/><path d="M950.3 153.0C990.3 153.0 976.1 484.8 1016.1 484.8"/><path d="M852.4 500.3C934.2 500.3 934.2 484.8 1016.1 484.8"/><path d="M1091.1 484.8C1185.1 484.8 1185.1 467.3 1279.2 467.3"/><path d="M532.6 520.4C656.5 520.4 656.5 500.3 780.4 500.3"/><path d="M532.6 520.4C778.9 520.4 -206.3 501.6 40.0 501.6"/><path d="M532.6 520.4C778.9 520.4 -206.3 501.6 40.0 501.6"/></g><g><rect x="394.6" y="355.4" width="138" height="56" rx="8" fill="#121324" stroke="#9aa3b8" stroke-opacity=".7" stroke-width="2"/><rect x="394.6" y="355.4" width="6" height="56" rx="3" fill="#9aa3b8"/><text x="410.6" y="389.4" font-size="17" fill="#eef1f8">MidiFlowNote</text></g><g><rect x="738.3" y="40.0" width="212" height="56" rx="8" fill="#121324" stroke="#fbbf24" stroke-opacity=".7" stroke-width="2"/><rect x="738.3" y="40.0" width="6" height="56" rx="3" fill="#fbbf24"/><text x="754.3" y="74.0" font-size="17" fill="#eef1f8">ADSR</text></g><g><rect x="780.4" y="389.8" width="72" height="56" rx="8" fill="#121324" stroke="#34d399" stroke-opacity=".7" stroke-width="2"/><rect x="780.4" y="389.8" width="6" height="56" rx="3" fill="#34d399"/><text x="796.4" y="423.8" font-size="17" fill="#eef1f8">Oscillator</text></g><g><rect x="1016.1" y="438.3" width="75" height="56" rx="8" fill="#121324" stroke="#38bdf8" stroke-opacity=".7" stroke-width="2"/><rect x="1016.1" y="438.3" width="6" height="56" rx="3" fill="#38bdf8"/><text x="1032.1" y="472.3" font-size="17" fill="#eef1f8">Gain</text></g><g><rect x="1279.2" y="436.3" width="60" height="56" rx="8" fill="#121324" stroke="#4da8ff" stroke-opacity=".7" stroke-width="2"/><rect x="1279.2" y="436.3" width="6" height="56" rx="3" fill="#4da8ff"/><text x="1295.2" y="470.3" font-size="17" fill="#eef1f8">MasterOut</text></g><g><rect x="40.0" y="378.1" width="249" height="56" rx="8" fill="#121324" stroke="#9aa3b8" stroke-opacity=".7" stroke-width="2"/><rect x="40.0" y="378.1" width="6" height="56" rx="3" fill="#9aa3b8"/><text x="56.0" y="412.1" font-size="17" fill="#eef1f8">Log</text></g></svg>