<svg xmlns="http://www.w3.org/2000/svg" viewBox="0 0 2118 1224" font-family="ui-sans-serif,system-ui,sans-serif"><rect width="100%" height="100%" fill="#0a0b0f"/><g fill="none" stroke="#4da8ff" stroke-opacity=".45" stroke-width="2.5"><path d="M1076.9 536.5C1152.7 536.5 1152.7 606.3 1228.4 606.3"/><path d="M1300.4 606.3C1347.9 606.3 1347.9 516.8 1395.3 516.8"/><path d="M1425.4 153.0C1465.4 153.0 1355.3 516.8 1395.3 516.8"/><path d="M1470.3 516.8C1510.3 516.8 1451.5 359.7 1491.5 359.7"/><path d="M1425.4 153.0C1465.4 153.0 1451.5 359.7 1491.5 359.7"/><path d="M1629.5 359.7C1716.8 359.7 1716.8 394.7 1804.1 394.7"/><path d="M1879.1 394.7C1948.4 394.7 1948.4 333.8 2017.6 333.8"/><path d="M1629.5 359.7C1670.9 359.7 1670.9 169.2 1712.3 169.2"/><path d="M1810.3 169.2C1850.3 169.2 1832.8 197.7 1872.8 197.7"/><path d="M1947.8 197.7C1987.8 197.7 1977.6 333.8 2017.6 333.8"/><path d="M643.1 944.3C935.8 944.3 935.8 606.3 1228.4 606.3"/><path d="M950.7 502.3C990.7 502.3 964.9 536.5 1004.9 536.5"/><path d="M935.8 713.3C1045.0 713.3 1045.0 854.0 1154.3 854.0"/><path d="M1296.3 854.0C1364.9 854.0 1364.9 840.0 1433.4 840.0"/><path d="M1508.4 840.0C1606.3 840.0 1606.3 787.3 1704.1 787.3"/><path d="M1842.1 787.3C1929.9 787.3 1929.9 333.8 2017.6 333.8"/><path d="M166.0 511.4C660.2 511.4 660.2 854.0 1154.3 854.0"/><path d="M704.5 383.0C958.9 383.0 958.9 153.0 1213.4 153.0"/><path d="M166.0 511.4C369.2 511.4 369.2 383.0 572.5 383.0"/><path d="M704.5 383.0C921.1 383.0 54.5 944.3 271.1 944.3"/><path d="M482.7 214.3C527.6 214.3 527.6 383.0 572.5 383.0"/></g><g><rect x="2017.6" y="302.8" width="60" height="56" rx="8" fill="#121324" stroke="#4da8ff" stroke-opacity=".7" stroke-width="2"/><rect x="2017.6" y="302.8" width="6" height="56" rx="3" fill="#4da8ff"/><text x="2033.6" y="336.8" font-size="17" fill="#eef1f8">MasterOut</text></g><g><rect x="1004.9" y="426.0" width="72" height="56" rx="8" fill="#121324" stroke="#34d399" stroke-opacity=".7" stroke-width="2"/><rect x="1004.9" y="426.0" width="6" height="56" rx="3" fill="#34d399"/><text x="1020.9" y="460.0" font-size="17" fill="#eef1f8">Oscillator</text></g><g><rect x="1228.4" y="495.8" width="72" height="56" rx="8" fill="#121324" stroke="#34d399" stroke-opacity=".7" stroke-width="2"/><rect x="1228.4" y="495.8" width="6" height="56" rx="3" fill="#34d399"/><text x="1244.4" y="529.8" font-size="17" fill="#eef1f8">AW Oscillator</text></g><g><rect x="1395.3" y="470.3" width="75" height="56" rx="8" fill="#121324" stroke="#38bdf8" stroke-opacity=".7" stroke-width="2"/><rect x="1395.3" y="470.3" width="6" height="56" rx="3" fill="#38bdf8"/><text x="1411.3" y="504.3" font-size="17" fill="#eef1f8">Gain</text></g><g><rect x="1213.4" y="40.0" width="212" height="56" rx="8" fill="#121324" stroke="#fbbf24" stroke-opacity=".7" stroke-width="2"/><rect x="1213.4" y="40.0" width="6" height="56" rx="3" fill="#fbbf24"/><text x="1229.4" y="74.0" font-size="17" fill="#eef1f8">ADSR</text></g><g><rect x="1491.5" y="261.7" width="138" height="56" rx="8" fill="#121324" stroke="#c084fc" stroke-opacity=".7" stroke-width="2"/><rect x="1491.5" y="261.7" width="6" height="56" rx="3" fill="#c084fc"/><text x="1507.5" y="295.7" font-size="17" fill="#eef1f8">BiquadFilter</text></g><g><rect x="271.1" y="704.8" width="372" height="56" rx="8" fill="#121324" stroke="#9aa3b8" stroke-opacity=".7" stroke-width="2"/><rect x="271.1" y="704.8" width="6" height="56" rx="3" fill="#9aa3b8"/><text x="287.1" y="738.8" font-size="17" fill="#eef1f8">Function</text></g><g><rect x="40.0" y="472.9" width="126" height="56" rx="8" fill="#121324" stroke="#fbbf24" stroke-opacity=".7" stroke-width="2"/><rect x="40.0" y="472.9" width="6" height="56" rx="3" fill="#fbbf24"/><text x="56.0" y="506.9" font-size="17" fill="#eef1f8">Clock</text></g><g><rect x="1804.1" y="348.2" width="75" height="56" rx="8" fill="#121324" stroke="#38bdf8" stroke-opacity=".7" stroke-width="2"/><rect x="1804.1" y="348.2" width="6" height="56" rx="3" fill="#38bdf8"/><text x="1820.1" y="382.2" font-size="17" fill="#eef1f8">Gain</text></g><g><rect x="1712.3" y="43.2" width="98" height="56" rx="8" fill="#121324" stroke="#c084fc" stroke-opacity=".7" stroke-width="2"/><rect x="1712.3" y="43.2" width="6" height="56" rx="3" fill="#c084fc"/><text x="1728.3" y="77.2" font-size="17" fill="#eef1f8">Reverb</text></g><g><rect x="1872.8" y="151.2" width="75" height="56" rx="8" fill="#121324" stroke="#38bdf8" stroke-opacity=".7" stroke-width="2"/><rect x="1872.8" y="151.2" width="6" height="56" rx="3" fill="#38bdf8"/><text x="1888.8" y="185.2" font-size="17" fill="#eef1f8">Gain</text></g><g><rect x="863.8" y="677.3" width="72" height="56" rx="8" fill="#121324" stroke="#9aa3b8" stroke-opacity=".7" stroke-width="2"/><rect x="863.8" y="677.3" width="6" height="56" rx="3" fill="#9aa3b8"/><text x="879.8" y="711.3" font-size="17" fill="#eef1f8">Button</text></g><g><rect x="808.7" y="467.3" width="142" height="56" rx="8" fill="#121324" stroke="#9aa3b8" stroke-opacity=".7" stroke-width="2"/><rect x="808.7" y="467.3" width="6" height="56" rx="3" fill="#9aa3b8"/><text x="824.7" y="501.3" font-size="17" fill="#eef1f8">Flow</text></g><g><rect x="1154.3" y="819.0" width="142" height="56" rx="8" fill="#121324" stroke="#9aa3b8" stroke-opacity=".7" stroke-width="2"/><rect x="1154.3" y="819.0" width="6" height="56" rx="3" fill="#9aa3b8"/><text x="1170.3" y="853.0" font-size="17" fill="#eef1f8">Flow</text></g><g><rect x="1433.4" y="793.5" width="75" height="56" rx="8" fill="#121324" stroke="#38bdf8" stroke-opacity=".7" stroke-width="2"/><rect x="1433.4" y="793.5" width="6" height="56" rx="3" fill="#38bdf8"/><text x="1449.4" y="827.5" font-size="17" fill="#eef1f8">Gain</text></g><g><rect x="1704.1" y="689.3" width="138" height="56" rx="8" fill="#121324" stroke="#c084fc" stroke-opacity=".7" stroke-width="2"/><rect x="1704.1" y="689.3" width="6" height="56" rx="3" fill="#c084fc"/><text x="1720.1" y="723.3" font-size="17" fill="#eef1f8">BiquadFilter</text></g><g><rect x="572.5" y="356.0" width="132" height="54" rx="8" fill="#121324" stroke="#fbbf24" stroke-opacity=".7" stroke-width="2"/><rect x="572.5" y="356.0" width="6" height="54" rx="3" fill="#fbbf24"/><text x="588.5" y="389.0" font-size="17" fill="#eef1f8">SpeedDivider</text></g><g><rect x="402.7" y="111.8" width="80" height="56" rx="8" fill="#121324" stroke="#9aa3b8" stroke-opacity=".7" stroke-width="2"/><rect x="402.7" y="111.8" width="6" height="56" rx="3" fill="#9aa3b8"/><text x="418.7" y="145.8" font-size="17" fill="#eef1f8">MidiKnob</text></g></svg>